<svg width="140" height="36" viewBox="0 0 140 36" fill="none" xmlns="http://www.w3.org/2000/svg">
<rect x="12" width="12" height="12" rx="4" fill="#BCE138"/>
<rect y="12" width="12" height="12" rx="4" fill="#1851E1"/>
<rect x="12" y="24" width="12" height="12" rx="4" fill="#1851E1"/>
<path d="M58.7207 19.8516C58.6328 21.2969 58.2373 22.5811 57.5342 23.7041C56.8311 24.8271 55.8496 25.7061 54.5898 26.3408C53.3398 26.9756 51.8359 27.293 50.0781 27.293C48.2422 27.293 46.6602 26.8779 45.332 26.0479C44.0039 25.208 42.9834 24.0166 42.2705 22.4736C41.5576 20.9307 41.2012 19.1045 41.2012 16.9951V15.6914C41.2012 13.5723 41.5674 11.7412 42.2998 10.1982C43.042 8.65527 44.0771 7.46387 45.4053 6.62402C46.7334 5.78418 48.3008 5.36426 50.1074 5.36426C51.9043 5.36426 53.418 5.69629 54.6484 6.36035C55.8887 7.01465 56.8457 7.91309 57.5195 9.05566C58.2031 10.1982 58.6133 11.502 58.75 12.9668H54.1504C54.0625 11.7168 53.7207 10.7695 53.125 10.125C52.5391 9.4707 51.5332 9.14355 50.1074 9.14355C49.1602 9.14355 48.374 9.37305 47.749 9.83203C47.124 10.291 46.6553 11.0039 46.3428 11.9707C46.0303 12.9277 45.874 14.1582 45.874 15.6621V16.9951C45.874 18.4697 46.0107 19.6904 46.2842 20.6572C46.5674 21.624 47.0166 22.3467 47.6318 22.8252C48.2471 23.2939 49.0625 23.5283 50.0781 23.5283C50.9668 23.5283 51.6992 23.3965 52.2754 23.1328C52.8516 22.8594 53.291 22.4492 53.5938 21.9023C53.8965 21.3555 54.0771 20.6719 54.1357 19.8516H58.7207ZM78.1553 16.7754C78.1553 18.9629 77.7695 20.8428 76.998 22.415C76.2266 23.9775 75.1572 25.1836 73.79 26.0332C72.4229 26.873 70.8408 27.293 69.0439 27.293C67.2471 27.293 65.6553 26.873 64.2686 26.0332C62.8916 25.1836 61.8125 23.9775 61.0312 22.415C60.25 20.8428 59.8594 18.9629 59.8594 16.7754V15.9111C59.8594 13.7236 60.2451 11.8486 61.0166 10.2861C61.7979 8.71387 62.877 7.50293 64.2539 6.65332C65.6309 5.80371 67.2178 5.37891 69.0146 5.37891C70.8115 5.37891 72.3936 5.80371 73.7607 6.65332C75.1377 7.50293 76.2119 8.71387 76.9834 10.2861C77.7646 11.8486 78.1553 13.7236 78.1553 15.9111V16.7754ZM73.5117 15.8818C73.5117 14.417 73.3359 13.1865 72.9844 12.1904C72.6328 11.1943 72.1201 10.4424 71.4463 9.93457C70.7725 9.42676 69.9619 9.17285 69.0146 9.17285C68.0479 9.17285 67.2324 9.42676 66.5684 9.93457C65.9043 10.4424 65.3965 11.1943 65.0449 12.1904C64.7031 13.1865 64.5322 14.417 64.5322 15.8818V16.7754C64.5322 18.2305 64.708 19.4609 65.0596 20.4668C65.4111 21.4629 65.9189 22.2197 66.583 22.7373C67.2568 23.2549 68.0771 23.5137 69.0439 23.5137C69.9912 23.5137 70.7969 23.2549 71.4609 22.7373C72.1348 22.2197 72.6426 21.4629 72.9844 20.4668C73.3359 19.4609 73.5117 18.2305 73.5117 16.7754V15.8818ZM92.4775 5.67188H97.5898L90.2217 27H86.8379L87.5557 22.2686L92.4775 5.67188ZM88.0244 22.2686L88.7715 27H85.3877L78.0342 5.67188H83.1465L88.0244 22.2686ZM105.32 19.6465H96.9561V16.0723H105.32V19.6465ZM118.119 27H113.695V10.9014L108.7 12.4102V8.83594L117.665 5.64258H118.119V27ZM127.241 23.5283C128.374 23.5283 129.355 23.4014 130.186 23.1475C131.025 22.8936 131.714 22.5176 132.251 22.0195C132.788 21.5117 133.184 20.8818 133.438 20.1299C133.701 19.3682 133.833 18.4844 133.833 17.4785V13.2598C133.833 12.293 133.706 11.4922 133.452 10.8574C133.208 10.2129 132.866 9.73438 132.427 9.42188C131.997 9.09961 131.509 8.93848 130.962 8.93848C130.366 8.93848 129.858 9.12891 129.438 9.50977C129.028 9.89062 128.716 10.3838 128.501 10.9893C128.286 11.585 128.179 12.2197 128.179 12.8936C128.179 13.5967 128.281 14.2412 128.486 14.8271C128.701 15.4131 129.023 15.8818 129.453 16.2334C129.893 16.5752 130.444 16.7461 131.108 16.7461C131.567 16.7461 131.982 16.6631 132.354 16.4971C132.734 16.3213 133.052 16.0918 133.306 15.8086C133.569 15.5254 133.774 15.208 133.921 14.8564C134.067 14.5049 134.146 14.1533 134.155 13.8018L135.591 14.7246C135.591 15.3691 135.444 16.0137 135.151 16.6582C134.868 17.293 134.468 17.874 133.95 18.4014C133.433 18.9189 132.832 19.334 132.148 19.6465C131.475 19.959 130.757 20.1152 129.995 20.1152C128.667 20.1152 127.539 19.8076 126.611 19.1924C125.684 18.5674 124.976 17.7129 124.487 16.6289C123.999 15.5449 123.755 14.3145 123.755 12.9375C123.755 11.5508 124.053 10.2861 124.648 9.14355C125.244 7.99121 126.084 7.07324 127.168 6.38965C128.252 5.70605 129.521 5.36426 130.977 5.36426C132.061 5.36426 133.047 5.56934 133.936 5.97949C134.834 6.37988 135.605 6.96582 136.25 7.7373C136.895 8.49902 137.388 9.41699 137.729 10.4912C138.081 11.5557 138.257 12.752 138.257 14.0801V15.6035C138.257 17.0293 138.105 18.3428 137.803 19.5439C137.5 20.7451 137.051 21.8242 136.455 22.7812C135.859 23.7285 135.117 24.5342 134.229 25.1982C133.35 25.8623 132.329 26.3701 131.167 26.7217C130.015 27.0635 128.726 27.2344 127.3 27.2344H126.963V23.5283H127.241Z" fill="#1A1A1A"/>
</svg>
